# xmcd CD database file generated by OrangeCD 4.3
#
# Track frame offsets:
#	150
#	20248
#	39055
#	61495
#	78988
#	110018
#	124786
#	163183
#	183766
#	201815
#	217964
#
# Disc length: 3170 seconds
#
# Revision: 0
# Processed by: cddbd v1.4PL0 Copyright (c) Steve Scherf et al.
# Submitted via: OrangeCD 4.3
#
DISCID=920c600b
DTITLE=Son House - Revisited [CD2]
DYEAR=2002
DGENRE=Blues
TTITLE0=Pony Blues
TTITLE1=Motherless Children
TTITLE2=Preachin' The Blues
TTITLE3=This Little Light of Mine
TTITLE4=Son's Blues
TTITLE5=I Shall Not Be Moved
TTITLE6=Levee Camp Moan
TTITLE7=Empire State Express
TTITLE8=Pearline
TTITLE9=Yonder Comes My Mother
TTITLE10=Louise McGhee
EXTD=
EXTT0=
EXTT1=
EXTT2=
EXTT3=
EXTT4=
EXTT5=
EXTT6=
EXTT7=
EXTT8=
EXTT9=
EXTT10=
PLAYORDER=
